<svg id="logosandtypes_com" xmlns="http://www.w3.org/2000/svg" viewBox="0 0 150 150"><style>.st1{fill:#fb7a24}</style><path d="M0 0h150v150H0V0z" fill="none" id="Layer_3"/><g id="xampp"><path class="st1" d="M118.6 17.2c1.8 0 3.6.2 5.4.7 3.8 1.2 5.8 3.9 6.6 7.6.3 1.5.4 3 .4 4.5v86.3c0 2.6-.1 5.2-1.4 7.6-1.4 2.6-3.4 4.7-6.3 5.6-.5.2-1.1.4-1.6.4-1.3 0-60.6.3-89.1.3-2.3 0-4.7-.2-6.9-1.1-.4-.2-.9-.3-1.3-.6-2.8-2.1-4.7-4.8-5.1-8.4-.1-1.3-.2-61.7-.2-90.5 0-1.7 0-3.4.5-5 1.4-4.3 4.4-6.6 8.8-7.1 1-.3 75.6-.3 90.2-.3zM75.4 89c.3 1.7.5 3.2 1.1 4.6 3.1 8.8 12.5 16.1 24.6 13.2 8.7-2.1 15.1-10.1 15.3-19.1.1-4.3-.9-8.2-3.2-11.8-.4-.6-.4-1.1-.1-1.8 1.4-3 2.4-6.2 2.9-9.5s.6-6.6 0-10c-1.5-7.9-9.5-16.3-20.3-16.2-10.6.1-18.1 8.1-19.7 15.8-.2.9-.3 1.9-.6 3-.1-.6-.3-1-.3-1.5-1.3-8.4-9.3-16-18-16.8-9.9-.9-17.3 4.7-20.7 11.4-1.1 2.3-1.8 4.7-2 7.2-.4 4.7.7 9.1 3.3 13.1.3.5.3.8.1 1.3-1.7 3.3-2.8 6.9-3.2 10.6-.4 3.5-.5 7 .5 10.5 2.8 9.5 11.9 15.6 21.8 14.5 8.4-.9 14-5.6 17.3-13.2.7-1.6.9-3.3 1.2-5.3z"/><path class="st1" d="M97.5 73.3c.5.2 1.1.4 1.6.6 2.1 1 3.4 2.6 3.5 4.9.2 3 .2 6 0 9-.2 3.4-3.4 6.1-7 6-3.5-.1-6.4-2.9-6.6-6.3-.1-2.1 0-4.2 0-6.2 0-1.1 0-1.1-1.2-1.1H68.6c-4.2 0-6.7 2.3-6.9 6.9-.1 1.8-.5 3.4-1.7 4.8-1.9 2.1-4.2 2.8-6.9 2.2-2.6-.6-4.1-2.5-4.9-4.9-.6-1.7-.3-3.5.1-5.2 1.6-8.5 6.5-14.2 14.8-16.8 1.8-.6 3.6-.8 5.5-.8h12.9c.6 0 1.2-.1 1.8-.1 3.3-.2 5.5-2.4 5.7-6.4V59c.1-3.7 2.8-6.6 6.6-6.7 3.7-.1 6.8 2.5 7 6.2.4 5.1-1.2 9.6-4.3 13.7-.2.3-.6.6-.8 1.1zM53.2 66.1c-2.5-.4-4.1-1.8-4.8-4.3-.7-2.7-.5-5.2 1.7-7.2 2.1-2 4.6-2.6 7.3-1.5 2.6 1 4.2 3.1 4.3 5.9.1 2.2 0 4.3 0 6.5 0 .5-.2.8-.8.8-1.1 0-6.3.1-7.7-.2z"/></g></svg>